<svg width="81" height="81" viewBox="0 0 81 81" fill="none" xmlns="http://www.w3.org/2000/svg">
<path d="M10.5172 60.2069V40.2069C10.5172 32.2504 13.6779 24.6198 19.304 18.9937C24.9301 13.3676 32.5607 10.2069 40.5172 10.2069C48.4737 10.2069 56.1043 13.3676 61.7304 18.9937C67.3565 24.6198 70.5172 32.2504 70.5172 40.2069V60.2069" stroke="white" stroke-width="4.85517" stroke-linecap="round" stroke-linejoin="round"/>
<path d="M70.5172 63.5403C70.5172 65.3084 69.8148 67.0041 68.5646 68.2543C67.3143 69.5045 65.6187 70.2069 63.8505 70.2069H60.5172C58.7491 70.2069 57.0534 69.5045 55.8032 68.2543C54.5529 67.0041 53.8505 65.3084 53.8505 63.5403V53.5403C53.8505 51.7722 54.5529 50.0765 55.8032 48.8262C57.0534 47.576 58.7491 46.8736 60.5172 46.8736H70.5172V63.5403ZM10.5172 63.5403C10.5172 65.3084 11.2196 67.0041 12.4698 68.2543C13.7201 69.5045 15.4158 70.2069 17.1839 70.2069H20.5172C22.2853 70.2069 23.981 69.5045 25.2313 68.2543C26.4815 67.0041 27.1839 65.3084 27.1839 63.5403V53.5403C27.1839 51.7722 26.4815 50.0765 25.2313 48.8262C23.981 47.576 22.2853 46.8736 20.5172 46.8736H10.5172V63.5403Z" stroke="white" stroke-width="4.85517" stroke-linecap="round" stroke-linejoin="round"/>
</svg>
