<svg width="83" height="83" viewBox="0 0 83 83" fill="none" xmlns="http://www.w3.org/2000/svg">
<path d="M10.3448 62.069V41.3793C10.3448 33.1485 13.6145 25.2547 19.4346 19.4346C25.2547 13.6145 33.1485 10.3448 41.3793 10.3448C49.6102 10.3448 57.5039 13.6145 63.324 19.4346C69.1441 25.2547 72.4138 33.1485 72.4138 41.3793V62.069" stroke="black" stroke-width="3.52" stroke-linecap="round" stroke-linejoin="round"/>
<path d="M72.4138 65.5173C72.4138 67.3463 71.6872 69.1005 70.3939 70.3939C69.1005 71.6872 67.3463 72.4138 65.5173 72.4138H62.069C60.2399 72.4138 58.4857 71.6872 57.1924 70.3939C55.899 69.1005 55.1724 67.3463 55.1724 65.5173V55.1724C55.1724 53.3434 55.899 51.5892 57.1924 50.2958C58.4857 49.0025 60.2399 48.2759 62.069 48.2759H72.4138V65.5173ZM10.3448 65.5173C10.3448 67.3463 11.0714 69.1005 12.3648 70.3939C13.6582 71.6872 15.4123 72.4138 17.2414 72.4138H20.6897C22.5188 72.4138 24.2729 71.6872 25.5663 70.3939C26.8596 69.1005 27.5862 67.3463 27.5862 65.5173V55.1724C27.5862 53.3434 26.8596 51.5892 25.5663 50.2958C24.2729 49.0025 22.5188 48.2759 20.6897 48.2759H10.3448V65.5173Z" stroke="black" stroke-width="3.52" stroke-linecap="round" stroke-linejoin="round"/>
</svg>
