<svg width="42" height="40" viewBox="0 0 42 40" fill="none" xmlns="http://www.w3.org/2000/svg">
<path d="M19.3688 1.93854C19.8178 0.556576 21.7729 0.556574 22.2219 1.93854L25.7154 12.6903C26.0501 13.7203 27.01 14.4177 28.093 14.4177H39.3981C40.8512 14.4177 41.4553 16.2771 40.2797 17.1313L31.1338 23.7762C30.2576 24.4128 29.8909 25.5412 30.2256 26.5713L33.7191 37.323C34.1681 38.705 32.5864 39.8541 31.4108 39L22.2648 32.3551C21.3886 31.7185 20.2021 31.7185 19.3259 32.3551L10.1799 39C9.00436 39.8541 7.42264 38.705 7.87167 37.323L11.3651 26.5713C11.6998 25.5412 11.3332 24.4128 10.4569 23.7762L1.31098 17.1312C0.135406 16.2771 0.739569 14.4177 2.19266 14.4177H13.4977C14.5808 14.4177 15.5406 13.7203 15.8753 12.6903L19.3688 1.93854Z" stroke="#5E442E"/>
</svg>
