<svg width="42" height="40" viewBox="0 0 42 40" fill="none" xmlns="http://www.w3.org/2000/svg">
<path d="M19.9445 1.72809C20.3935 0.346127 22.3486 0.346125 22.7976 1.72809L26.2911 12.4798C26.6258 13.5099 27.5857 14.2073 28.6687 14.2073H39.9738C41.4268 14.2073 42.031 16.0667 40.8554 16.9208L31.7095 23.5657C30.8332 24.2023 30.4666 25.3308 30.8013 26.3608L34.2947 37.1125C34.7438 38.4945 33.162 39.6437 31.9865 38.7896L22.8405 32.1447C21.9643 31.5081 20.7778 31.5081 19.9016 32.1447L10.7556 38.7896C9.58005 39.6437 7.99833 38.4945 8.44736 37.1125L11.9408 26.3608C12.2755 25.3308 11.9088 24.2023 11.0326 23.5657L1.88666 16.9208C0.71109 16.0667 1.31525 14.2073 2.76834 14.2073H14.0734C15.1564 14.2073 16.1163 13.5099 16.451 12.4798L19.9445 1.72809Z" fill="#5E442E" stroke="#5E442E"/>
</svg>
